<?xml version="1.0" encoding="UTF-8"?>
<svg version="1.1" viewBox="0 0 2048 2048" width="128" height="128" xmlns="http://www.w3.org/2000/svg">
<path transform="translate(1916,124)" d="m0 0h8l5 10 6 22 41 121 16 50 17 54 6 18 3 16v20l-7 39v13l-6 32-6 35-14 90-10 69-4 16-2 15-1 2 2-1h7l16 5 6 4 4 7-1 7-5 9-6 4-11 6-14 9-17 9 6 8 10 8 8 9 14 10 7 11-1 6-16 10-13 10-7 7h-2l-2 4-17 12-1 2h-2l5 5 9 6 5 5 5 4 8 6 5 6-3 10-7 10-13 16-9 11-10 11-13 18-7 9-15 15-3 5 3 18 7 27 18 54 11 27 17 50 14 41 13 38 12 36 23 63 11 29 12 36 4 16v13l-3 16-6 23-7 23-11 42-16 59-8 28-12 46-15 55-10 36-14 52-10 36-6 18-3 5-11-3-36-10-42-12-32-10-24-8-36-10-54-17-79-26-48-15-47-13-44-11-10-1-4 10-14 9-4 2-5 2-10 8-6 7-14 7-17 6-29 14-24 11-21 8-25 12-19 10-22 12-12 7-15 6-20 5-34 5-22 2-45 2h-97l-70-2-41-3-37-5-16-4-19-10-24-11-29-13-25-11-39-20-26-12-17-8-17-10-16-12-11-8-3-2v-2h-2v-2l6-3 10 1 1-4 6-4 3 1 1 9v-7l1-1 1-9-29 6-25 3-26 6-70 20-38 12-36 12-44 14-42 13-61 18-67 21-24 7-33 7h-9l-5-5-5-18-25-100-6-19-10-38-14-51-9-35-10-39-9-29-9-34-14-50-4-16v-10l8-26 10-28 10-27 17-47 19-56 14-40 10-29 14-41 10-26 8-16 9-33 8-35 7-24 1-11-6-11-11-11-8-10-12-14-10-12-13-19-8-10-4-8-4-14 4-5 22-12 8-5-1-4-13-11-8-7-15-14-16-12-4-6v-6l7-8 10-9 14-14 8-6h3l-3-6-4-5-12-6-14-9-10-7-6-7-2-3 1-8 4-6 5-4 13-5 10 2-7-41-5-32-10-58-11-64-7-48-10-60-1-8v-26l3-14 7-19 11-31 14-45 14-44 10-30 28-86 5-14 2-2 10 1 29 8 27 9 41 16 27 11 58 25 26 11 28 12 29 12 21 8 23 10 22 9 43 18 32 13 28 12 27 11 21 9 30 13 25 10 21 8 27 11 19 5 19 3 33 2 28 1 50 1h227l90-1 57-1 37-1 26-2 20-5 30-10 29-11 19-7 30-13 50-22 42-19 25-10 24-10 28-11 23-10 44-18 25-11 16-7 10-5 32-13 33-12 16-8 24-10 11-2 12-5 21-8 25-10 19-6zm-1303 1676v2l3 1-1-3z" fill="#EA933F"/>
<path transform="translate(1922,129)" d="m0 0 6 3 7 24 41 121 16 50 17 54 6 18 3 16v20l-7 39v13l-6 32-6 35-14 90-10 69-4 16-2 15-1 2 2-1h7l16 5 6 4 4 7-1 7-5 9-6 4-11 6-14 9-17 9 6 8 10 8 8 9 14 10 7 11-1 6-16 10-13 10-7 7h-2l-2 4-17 12-1 2h-2l5 5 9 6 5 5 5 4 8 6 5 6-3 10-7 10-13 16-9 11-10 11-13 18-7 9-15 15-6 11-2 2v7l-5-1-6-2-3-3-16-8-24-9-38-13v-2l-6-1-7-2-23-7-32-10-15-5-29-9-71-21-36-12-43-15-27-10-20-8-16-8-16-9-25-17-82-63-13-11-11-9-14-12-17-14-11-9-14-12-13-11-8-7-16-15-11-9-12-11-22-22 1-3h5l8-9 5-5-5 3h-3l7-6 19-13 13-10 5-3h2v-2h3v-2l7-3 5-5 13-10 14-11 10-8h2v-2l13-9 22-18 5-2v-2l7-5h2v-2l11-8h2v-2l11-8h2l1-3 4-2 3-3 11-8 12-9h2v-2l6-4h2v-2l6-4 16-13 3-2h3v-2l8-5 10-7 7-6 5-1v-2l15-10 8-6 5-4h3l1-3 10-6h2l1-3h3v-2l4-3h3l1-3 7-4 11-8h2l1-3 5-2v-2l6-4h2v-2l7-4h2v-2l15-10 10-8 8-6h2v-2l4-1v-2l4-1v-2l12-9 15-12 5-2v-2l12-9h2v-2l11-8 13-10h2v-2l5-2v-2l13-10h2v-2l13-10 5-4h2v-2l10-7h2l1-3 18-13 5-4h2v-2l4-1v-2l4-2 3-3 11-9 3-2 2-1 1-6 4-1 1-3 5-3 4-4 6-5h2v-2l11-8 12-9h2l1-3 5-1 1-3 10-6 3-1v-2l9-6 11-8 12-6h4v-2l13-5 8-3h9z" fill="#8B5F37"/>
<path transform="translate(118,125)" d="m0 0 10 1 15 4 1 2 8 4 5 4 6 4 7 6 3 3 7 4 10 8 8 4 7 6 6 3 8 6 7 5v2l5 2 12 9 5 2 4 5 2 1v2l5 2v2l4 2 5 4 8 4v3l4 2 10 7 3 3 3 1 5 5 9 8 4 2v2h2v2h2v2l4 1 4 4 3 2v2l4 2 6 4 2 4 4 1 4 3v2l5 2v2l3 1v2h3v3l5 2 4 3v2l4 2 1 3 4 2 10 7v2h2v2h3v2l8 4 5 5 18 13v2l5 2v2l8 4v2l5 2v2l5 2 8 7 10 7 11 9 17 12 17 13 4 2v2l5 2 3 3 8 4 4 4 4 2v2l6 2 9 7v2l5 2 11 8 2 1v2l5 1 5 5 6 4v2l5 2 12 9v2l5 2v2h3v2l5 2 8 6v2l4 1 8 5v2h3l3 3 17 12 4 3v2l5 2 10 8 6 4v2l5 2 9 7 3 3 6 4 8 6 12 11 13 10v2l5 2 11 9 5 4 4 4 14 10 12 9 14 11 16 13 6 5 8 7 7 6 5 5 2 10-9 10-10 10-11 9-17 14-11 9-13 12-14 11-10 9-14 11-16 13-11 9-13 11-11 9-9 8-17 13-12 10-10 8-13 10-16 13-18 13-15 9-22 13-16 8-25 10-40 13-20 6-77 23h-3v2l-61 20-50 15-24 7-16 5-26 9-18 7-19 5-8 1-4-1-2-10-6-10-10-10-8-10-12-14-10-12-13-19-8-10-4-8-4-14 4-5 22-12 8-5-1-4-13-11-8-7-15-14-16-12-4-6v-6l7-8 10-9 14-14 8-6h3l-3-6-4-5-12-6-14-9-10-7-6-7-2-3 1-8 4-6 5-4 13-5 10 2-7-41-5-32-10-58-11-64-7-48-10-60-1-8v-26l3-14 7-19 11-31 14-45 14-44 10-30 28-86 5-14z" fill="#8B5F37"/>
<path transform="translate(878,1574)" d="m0 0 2 2-2 7-3 12-9 70-8 64-1 5v20l7-1 8-4 6-6 6-1 35-1h151l50 1h13l25 2 12 5 6 4h15l-1-20-4-31-3-26-7-70-1-13-3-1 3-1 5 2 10 5 15 10 16 10 23 16 9 6v2l5 2 9 7 10 7 9 7 11 6 8 6 13 9 5 4 19 12 14 10 10 7 11 7 7 6 8 5v2l5 2 10 6 14 9 16 9 14 8 10 7 17 9 12 5 14 4 5 4-8-1-40-10-10-1-4 10-14 9-4 2-5 2-10 8-6 7-14 7-17 6-29 14-24 11-21 8-25 12-19 10-22 12-12 7-15 6-20 5-34 5-22 2-45 2h-97l-70-2-41-3-37-5-16-4-19-10-24-11-29-13-25-11-39-20-26-12-17-8-17-10-16-12-11-8-3-2v-2h-2v-2l6-3 10 1 1-4 6-4 3 1 1 9v-7l1-1 1-9-29 6-25 3-26 6-42 12-3-1 12-5 21-5 19-9 11-6 3-3 9-4 14-6h2v-2l16-9 9-6 14-9 6-5 8-4 7-6 19-13 5-3 14-9 7-6 9-5h2v-2l9-6 3-3 11-6 11-8 8-6 11-6 10-9 9-4 11-8 8-5 10-8 9-8 15-11 15-10 16-11 9-7zm-265 226v2l3 1-1-3z" fill="#D6C6BB"/>
<path transform="translate(971,1561)" d="m0 0h73l11 1 29 1 24 2 27 6 18 6 15 9 3 3v3l4 1 2 13 7 70 3 26 4 31 1 20-1 1h-15l-7-5-11-4-25-2h-18l-48-1h-149l-36 1-5 2-8 7-8 3-5-1v-20l4-29 11-88 4-28 3-8 1-5h2v2l17-8 21-4 26-3z" fill="#3F3832"/>
<path transform="translate(1916,124)" d="m0 0h8l3 5-1 3-3-2-2 1h-9l-16 6-5 1v2l-8 3-11 6-15 11h-2v2l-13 8-1 2-5 2-3 3-7 5-5 1-10 5h-3l-1 2-24 12-17 6-9 4-12 4-16 8-5 3-4 2-8 2-7 2-15 6-12 6-11 4-13 3-9 4-14 4-14 6-10 3-18 7-26 10-8 3-5 1-4-2-5 3-5 4-14 8-3 1-6-1-4 4-4 2-3 3-6 2h-7l-9 3-2-1-9 3-12 5-12 7-10 7-9 5-7 3-4 4-15 7-13 4-16 7-16 5-9 3-12 5-9 4-17 4-4 1-14 1-13 3-14 1-5 2h-7l-5 1h-8l-1 1h-11l-43-3h-28l-6-1-18 1-6-2-19 1-14-2-6 1h-8l-7-1-18-1-10 1-2-1h-9l-4-1-13 1-3-1h-8l-12-1h-42l-13 1-52 2-4 1-57 3-24 3-9 1-21 1-6 1-14-1-13-3-11-5-14-6-10-4-11-4-2-2-11-4-15-7-11-4-30-15-7-2-7-4-11-6-14-4-8-4-18-6-11-4-14-3-1-1-9-2-6-2-12-3-5-3-9-2-6-4-17-6h-3l-1 3-6-1-13-7-2-1-1 2-4-3-11-5-10-4-16-8-11-3-16-2-13-3-2-1-10-1-4-5-19-10-10-3-4-5-18-7-5-3-4-2v-2l-5-1-6-4-6-2v-2l-5-2-4-4-15-8-12-8v-2l-4-1-16-8-10-6-8-6-6-3-11-9-6-3v-2l-3-1-5-5-9-6-5-3-1-2-4-1 4-1 26 8 45 17 19 8 20 8 32 14 21 9 26 11 28 12 29 12 21 8 23 10 22 9 43 18 32 13 28 12 27 11 21 9 30 13 25 10 21 8 27 11 19 5 19 3 33 2 28 1 50 1h227l90-1 57-1 37-1 26-2 20-5 30-10 29-11 19-7 30-13 50-22 42-19 25-10 24-10 28-11 23-10 44-18 25-11 16-7 10-5 32-13 33-12 16-8 24-10 11-2 12-5 21-8 25-10 19-6z" fill="#FBAC5C"/>
<path transform="translate(150,1044)" d="m0 0 1 3 12-1h7v7l-4 1 3 10-4 7-4 8-3 12v13l-1 12-4 14-2 9-4 6 1 5-1 2h-2l-1 9-2 9-3 2-4 10-1 8-4 8-2 10-3 7-4 11-3 7-1 7-3 3-1 6-1 7-5 11-1 9-3 5-3 10-3 12-3 7-4 13-2 4-1 6h-2l-1 5-3 9-4 17-1 2-2 15-2 6-1 9-4 15-3 9 1 4-4 10-1 4 3-1v3l1 9-1 5-4 4-1 4h-3v2l-4 2-1 7-4 5-3 6v4l-2 22-1 3 1 4 1 12 1 3 2 17 1 4v7l2 5 2 8 2 15 2 9 3 17 2 10 3 24 3 12 5 16 2 10 1 19 3 13 7 21 5 27 3 7 2 9 2 6 2 12v5l3 9 4 16 3 11 3 8 4 14 2 8 4 12 4 6 4 4v3l5 2 8 4 7 2 13-2 21-5 18-4 5-1v-2l13-4 8-4 31-8 9-2h5v-2l6-3 7-3 14-4 12-3 5-1 8-4 7-1 5-1 9-2 8-3 11-3 9-1 8-3 4-2 7-2 19-5 9-1 7-3 8-2 15-6 25-6 11-3 7-3h2l1-3 12-5 10-3 20-4 14-5h2v-2l8-4 13-7 8-6 8-3 10-6 12-10 22-16 8-6 6-3 13-9 7-3 7-4 5-5 5-4 10-5 6-4h2v-2l6-3 9-6 9-5 5-5 14-10 9-5h2v-2h2v-2l5-3h2v-2l9-6h2l2-4 19-9 10-4 19-12 7-6 6-4 3-3 6-4 5-5 8-12 8-6 8-1 1 1 9-3 10-2 4-1h10l24-3 7-2 15-1 83-1 28 2 4 1 25 2 14 3h5l2 2 8 2v1h-10l-9-2-24-2-29-1-11-1h-73l-35 3-24 3-14 3-15 7h-2l-3-3-9 8-11 7-10 7-12 8-12 9-11 9-9 8-9 5-10 8-5 3-7 3-12 10-11 6-10 8-11 7-6 3h-2l-2 4-6 4h-2v2l-8 4-9 7-15 10-5 3-16 11-9 7-6 4-5 3-10 7-9 6-15 9-7 4h-2v2l-11 5-15 7-10 7-10 4-12 6-24 6-13 6-34 10-36 12-38 12-31 10-42 13-61 18-67 21-24 7-33 7h-9l-5-5-5-18-25-100-6-19-10-38-14-51-9-35-10-39-9-29-9-34-14-50-4-16v-10l8-26 10-28 10-27 17-47 19-56 14-40 10-29 14-41 10-26 8-16 9-33 8-35 7-24z" fill="#FBAC5C"/>
<path transform="translate(118,125)" d="m0 0 10 1 15 4 1 2 8 4 5 4 6 4 7 6 3 3 7 4 10 8 8 4 7 6 6 3 8 6 7 5v2l5 2 12 9 5 2 4 5 2 1v2l5 2v2l4 2 5 4 8 4v3l4 2 10 7 3 3 3 1 5 5 9 8 4 2v2h2v2h2v2l4 1 4 4 3 2v2l4 2 6 4 2 4 4 1 4 3v2l5 2v2l3 1v2h3v3l5 2 4 3v2l4 2 1 3 4 2 10 7v2h2v2h3v2l8 4 5 5 18 13v2l5 2v2l8 4v2l5 2v2l5 2 8 7 10 7 11 9 17 12 17 13 4 2v2l5 2 3 3 8 4 4 4 4 2v2l6 2 9 7v2l5 2 11 8 2 1v2l5 1 5 5 6 4v2l5 2 12 9v2l5 2v2h3v2l5 2 8 6v2l4 1 8 5v2h3l3 3 17 12 4 3v2l5 2 10 8 6 4v2l5 2 9 7 3 3 6 4 8 6 12 11 13 10v2l5 2 11 9 5 5-4-2-16-11-11-9-15-12-6-4-14-11-9-7-8-6-7-5v-2l-4-2-22-16-10-7-19-13-7-5v-2l-5-2-12-9-14-10-5-4-2-1v-2l-5-2-18-13-30-23-19-14-6-4v-2l-5-2-17-13-7-5v-2l-4-2-10-7-13-10-13-9v-2l-4-2-14-10-17-13-18-13-12-9v-2l-5-2-9-7-5-4-7-5v-2l-6-2-8-7-15-10-5-4v-2l-5-2-5-3-3-3-11-8-4-2v-2l-5-2-13-10-8-6-7-4v-2l-4-2-5-3-6-4v-2l-8-2-16-12-6-4-14-7-5-3-12-4h-7l-8-1-2 2-8 3-1 3-1 4-2 4-9 3-6 4-3 8h-2l-1 7-6 13-5 12-3 6-2 5-1 5-4 13-4 22-3 9-3 17-2 5v7l-3 7-2 5h-2v8l-2 4-3 15v7l-3 7-2 10-4 17-4 23v26l1 23 1 11 2 5 2 17 2 10 1 13 1 2 1 13 2 10 4 34 1 9 1 1v12l1 5 1 30 1 11 1 4v8l3 7 1 9v10l1 7-1 18v10l1 7-1 8v7l-2 4-1 13 2 13 4 10 6 8 2 4-1 4-6-8-12-6-14-9-10-7-6-7-2-3 1-8 4-6 5-4 13-5 10 2-7-41-5-32-10-58-11-64-7-48-10-60-1-8v-26l3-14 7-19 11-31 14-45 14-44 10-30 28-86 5-14z" fill="#9A714C"/>
<path transform="translate(1889,1041)" d="m0 0h1l5 25 8 27 15 45 11 27 17 50 14 41 13 38 12 36 23 63 11 29 12 36 4 16v13l-3 16-6 23-7 23-11 42-16 59-8 28-12 46-15 55-1 3h-2v-10l2-8 4-13 3-11 1-7v-1l1-7 5-25 2-7 1-5 1-2 1-17 4-14 5-28 4-16 5-17 5-10 2-20 3-18 3-10 3-16 2-4v-3h2v-10l3-5v-9h2v-4h-2l-4-8-4-6-2-5-1-14-2-9-2-16-3-10-4-9-5-12-3-5-2-2-6-16-6-15-5-16-3-8v-8l1-8-3-12-5-2-4-6-4-15-2-19-1-6-3-3v-2l-3-1-4-9-4-11-1-5-2-13v-6l-6-9-6-15-3-16-4-8-4-6-1-3-2-1v-7h-1v-11l-1-3-2-7-1-8-7-5-6-10-4-11-5-11v-13l-2-7h-2v-2h-2l-1-6 4-1 1 3 6 1 5 2-1-7z" fill="#FBAC5C"/>
<path transform="translate(1272,1201)" d="m0 0 4 2 11 5 12 4 7 3 5 2v2l5 2 12 4 12 5 4 1 18 2v2l9 3 25 11 16 8 3 4v3l6-1 1 2-9 4-23 7-50 12-32 8-31 7-26 7-30 6-4-1 3-7 10-21 7-14 6-11 7-14 9-21 8-16z" fill="#312B25"/>
<path transform="translate(766,1205)" d="m0 0 5 3 7 12 8 19 7 12 6 11 4 9 8 16 7 16 8 11 1 5-7-2-29-7-20-5-12-2v-2l-9-1-17-3-23-6v-2h-8l-4-1v-2h-8l-4-1v-2l-10-1v-2l-10-2-30-9-3-2 2-4 20-8 14-6 12-5 27-13 30-15 10-4 11-5z" fill="#403933"/>
<path transform="translate(1922,129)" d="m0 0 6 3 7 24 41 121 16 50 17 54 6 18 2 11-1 4-2-3-3-2-2-13-1-5-1-3-7 1v-3l-2-1-2-5-2-3v-16l-2-11-4-9v-3h-2l-2-6-5-11-2-5-1-5-2-1-7-16-3-3-8-19-4-14-7-19-4-11-4-18-3-7v-5h-2l-5-13v-2l-4-2-6-7-6-3-2-3-16-1-15 3-14 7-7 3-9 5h-2v2l-12 6-1 2-4 2h-3v2l-16 11-6 2-1 3-9 6h-2v2l-6 4-8 6-3 3-4 1v2l-7 5h-2l-2 4-5 2-4 4h-2v2l-5 2v2l-6 3-12 8-3 3h-3v2l-6 4-8 6h-2v2l-12 9-9 7-5 2-16 12-13 10-17 13-17 14-14 11-16 13-19 14-13 10-8 6h-2v2l-5 2v2l-11 8-14 10-12 9-9 6-15 11-5 2v2l-10 6-6 4h-2v2l-11 7-17 12-19 14-18 13-11 8h-2v2l-7 5h-2v2l-10 7-3 3-8 6h-2v2l-3 1-1 2-5 3-13 10-11 8h-2l-2 4-7 4-13 10-11 8-16 12-7 5-2-1 15-12 6-4 16-13 4-3h2v-2l13-9 22-18 5-2v-2l7-5h2v-2l11-8h2v-2l11-8h2l1-3 4-2 3-3 11-8 12-9h2v-2l6-4h2v-2l6-4 16-13 3-2h3v-2l8-5 10-7 7-6 5-1v-2l15-10 8-6 5-4h3l1-3 10-6h2l1-3h3v-2l4-3h3l1-3 7-4 11-8h2l1-3 5-2v-2l6-4h2v-2l7-4h2v-2l15-10 10-8 8-6h2v-2l4-1v-2l4-1v-2l12-9 15-12 5-2v-2l12-9h2v-2l11-8 13-10h2v-2l5-2v-2l13-10h2v-2l13-10 5-4h2v-2l10-7h2l1-3 18-13 5-4h2v-2l4-1v-2l4-2 3-3 11-9 3-2 2-1 1-6 4-1 1-3 5-3 4-4 6-5h2v-2l11-8 12-9h2l1-3 5-1 1-3 10-6 3-1v-2l9-6 11-8 12-6h4v-2l13-5 8-3h9z" fill="#9B724E"/>
<path transform="translate(1184,1594)" d="m0 0 6 2 9 6 8 4 9 3 4 2 1 2 4 2 15 8 3 2v2l5 1 10 5 5 2 5 3 4 7 6 4v2l4 2 1 3 4 2 12 7v2h3l3 3 5 2 11 7 6 4 7 5 5 5 5 2 1 2 3 1v2l3 1 4 4 9 4v2l10 3 3 3 6 3 12 7 16 8 3 1v2l5 2 12 10v2l4 2 7 4 4 3 14 5 16 3 22 7v2l5 1 15 6 12 5 9 3 1 2 7 3 2 1v2l4-1 4 2v2l8 1 18 6 7 3 18 4 8 3 15 3 8 3 7 3 19 6 6 2 13 5 10 3 7 3 11 3 11 4 7 3 10 6 12 3 10 1 4 1 21 6 9 5 25 5 13 3 7 2v2h6l6 3 14 4 9 2 9 1 16-3 5-1 3 1 5-5 2-3h2l2-7h2l2-8h2l1-5 4-2 1-3-1 8-10 34-4 12-3 5-11-3-36-10-42-12-32-10-24-8-36-10-54-17-79-26-48-15-43-12v-2l-5-2-19-6-7-3-19-10-8-6-16-9-21-12-13-9-9-5v-2l-5-2-9-7-9-6-13-9-14-10-22-14-9-7-13-9-9-6-7-4-5-4-10-7-9-7-5-3v-2l-4-2-11-7-14-10-14-9-16-10-10-7z" fill="#ECA25C"/>
<path transform="translate(768,1177)" d="m0 0 8 1 6 3 2 2 6 3 5 10 5 13 1 6 6 18 3 10 4 9 2 11 4 7 4 12 5 12 2 6 3 1 4 15 4 6 1 9h-3l-3-2v-2l-5-2-3-2v-2l-9-2-12-4-24-4-3-1v-2l-6-1 4-1 30 7 11 3 7 3-4-8-7-10-8-18-6-12-4-9-6-11-9-16-7-17-7-11-3-1-17 6-7 4-8 3-32 16-21 10-16 7-30 12-1 3 15 5 4 2-9-1-16-3-9-3-5-5 1-8 8-4 6-7 18-8 14-3 11-3 9-3 5-1 10-4 8-4 7-5h3v-2h3l1-2 5-4h2v-2l11-9 9-7 14-7z" fill="#BD7B3F"/>
<path transform="translate(118,125)" d="m0 0 10 1 15 4 1 2 8 4 5 4 6 4 7 6 3 3 7 4 10 8 8 4 7 6 6 3 8 6 7 5v2l5 2 12 9 5 2 4 5 2 1v2l5 2v2l4 2 5 4 8 4v3l4 2 10 7 3 3 3 1 5 5 9 8 4 2v2h2v2h2v2l4 1 4 4 3 2v2l4 2 6 4 2 4 4 1 4 3v2l5 2v2l3 1v2h3v3l5 2 4 3v2l4 2 1 3 4 2 10 7v2h2v2h3v2l8 4 5 5 18 13v2l5 2v2l8 4v2l5 2v2l5 2 8 7 10 7 11 9 17 12 17 13 4 2v2l5 2 3 3 8 4 4 4 4 2v2l6 2 9 7v2l5 2 11 8 2 1v2l5 1 5 5 6 4v2l5 2 12 9v2l5 2v2h3v2l5 2 8 6v2l4 1 8 5v2h3l3 3 17 12 4 3v2l5 2 10 8 6 4v2l5 2 9 7 3 3 6 4 8 6 12 11 13 10v2l5 2 11 9 5 5-4-2-16-11-11-9-15-12-6-4-14-11-9-7-8-6-7-5v-2l-4-2-22-16-10-7-19-13-7-5v-2l-5-2-12-9-14-10-5-4-2-1v-2l-5-2-18-13-30-23-19-14-6-4v-2l-5-2-17-13-7-5v-2l-4-2-10-7-13-10-13-9v-2l-4-2-14-10-17-13-18-13-12-9v-2l-5-2-9-7-5-4-7-5v-2l-6-2-8-7-15-10-5-4v-2l-5-2-5-3-3-3-11-8-4-2v-2l-5-2-13-10-8-6-7-4v-2l-4-2-5-3-6-4v-2l-5-1-5-5-7-5-4-4-20-14-8-6-5-3-6-5-4-1-3-3-9-5-13-5-16 3-2 1-5 11-2 6h-2v4l-2 1-4 13-3 10-3 7-2 9h-2l-1 4-13 39-2 5-5 13-2 11-4 9-1 7-3 4-3 7-1-3 16-50 10-30 28-86 5-14z" fill="#BD7B3F"/>
<path transform="translate(971,1561)" d="m0 0h73l11 1 29 1 24 2 27 6 18 6 15 9 3 3v3l4 1 2 13 1 12v31h2l1 28 1 13v15l-2-1-1-5v-7l-2-5v-8l-1-11 1-3-1-7v-2-7l-1-3h2l-4-24v-3h-3l-4-6-2-2v-3l-4 1-7-3-1-4 3-2h10l-3-3-10-4 1-5h-7l-9-3-3-2-1-3-10 2-5-1v2l-3 1h-9l-16-2-4-1-19-2-4-2h-6l-2-2-15-2h-58v3l-2-1 1-2-3 1h-4l-27 1-6 2v-2l-7 1-1 2-14 1v2l-7 2-4 2-5 1v2h-2l-1 2h-4l-1 2-3 3-3 11-3 12h-2l-2 6 1 6h-2l-1 9-2 3-1 10-2 2-1 17-1 7-2 4-2 11-1 14-2 12-2 5-2-2 1-29 3-27 2-26 7-51 3-8 1-5h2v2l17-8 21-4 26-3z" fill="#332C26"/>
<path transform="translate(143,131)" d="m0 0 7 1 25 8 30 11 22 9 23 9v1h-7l-4-1-9-2-10-4-16-4-5-3-5-2-7-3-1 2 6 2 8 5v2l5 1 7 4 6 2 4 4 11 5v2l5 1 10 4 3 2 10 3 15 6 5 3 11 3 8 5 7 3 15 7 10 4 3 1v2l6 1 7 5 8 3 17 8 12 4 10 5 12 7 3 1 3 3 6 3 5 3v2h2v2l5 2 11 4 6 2 2 2 4 3 5 3 5 5-1 3-6-1-13-7-2-1-1 2-4-3-11-5-10-4-16-8-11-3-16-2-13-3-2-1-10-1-4-5-19-10-10-3-4-5-18-7-5-3-4-2v-2l-5-1-6-4-6-2v-2l-5-2-4-4-15-8-12-8v-2l-4-1-16-8-10-6-8-6-6-3-11-9-6-3v-2l-3-1-5-5-9-6-5-3-1-2-4-1z" fill="#ECA25D"/>
<path transform="translate(878,1574)" d="m0 0 2 2h-2l-4 16-1 5-3 1-1 2h-2l-1 5-10 3-4 4-5 3-4 4-7 3-3 4h-2l-2 4-7 5h-2v2l-8 4-5 4-6 4-1 2-12 6-11 9h-3v2l-14 10-5 5-12 7-5 3-13 8-7 4-13 9-12 8h-2v2l-6 4h-2v2l-14 8h-2v2l-10 6-5 4-10 6-12 6-4 3-18 7-12 6-13 5-9 3-6 5-3 3-27 7-31 9-3-1 12-5 21-5 19-9 11-6 3-3 9-4 14-6h2v-2l16-9 9-6 14-9 6-5 8-4 7-6 19-13 5-3 14-9 7-6 9-5h2v-2l9-6 3-3 11-6 11-8 8-6 11-6 10-9 9-4 11-8 8-5 10-8 9-8 15-11 15-10 16-11 9-7z" fill="#D6B79E"/>
<path transform="translate(1029,1555)" d="m0 0h12l28 2 4 1 25 2 14 3h5l2 2 8 2v1h-10l-9-2-24-2-29-1-11-1h-73l-35 3-24 3-14 3-15 7h-2l-3-3-9 8-11 7-10 7-12 8-12 9-11 9-9 8-9 5-10 8-5 3-7 3-12 10-11 6-10 8-11 7-6 3h-2l-2 4-6 4h-2v2l-8 4-9 7-15 10-5 3-16 11-9 7-6 4-5 3-10 7-9 6-15 9-7 4h-2v2l-11 5-15 7-10 7-10 4-6 3-13 3-8-1v-2h-3v2l-12 3-6 1-1 2-6 1 1-4 12-5 10-3 20-4 14-5h2v-2l8-4 13-7 8-6 8-3 10-6 12-10 22-16 8-6 6-3 13-9 7-3 7-4 5-5 5-4 10-5 6-4h2v-2l6-3 9-6 9-5 5-5 14-10 9-5h2v-2h2v-2l5-3h2v-2l9-6h2l2-4 19-9 10-4 19-12 7-6 6-4 3-3 6-4 5-5 8-12 8-6 8-1 1 1 9-3 10-2 4-1h10l24-3 7-2 15-1z" fill="#EBA15D"/>
<path transform="translate(781,1250)" d="m0 0 6 1 4 7v2h2l10 18 8 13 5 12 8 12v2l-7-1-35-8-11-3-12-2v-2l-9-1-17-3-23-6v-2h-8l-4-1v-2h-8l-4-1v-2l-10-1v-2l-10-2-27-8 1-3 3-2 13-2 7-2 8-2 12-1 6-2 13-1 3 3 7 3 2 3 6 2 4 6 14 6 6 2 7-1 5-2 8-1 12-7 2-5 2-13z" fill="#322C25"/>
<path transform="translate(1916,124)" d="m0 0h8l3 5-1 3-3-2-2 1h-9l-16 6-5 1v2l-8 3-11 6-15 11h-2v2l-13 8-1 2-5 2-3 3-7 5-5 1-10 5h-3l-1 2-24 12-17 6-9 4-12 4-16 8-5 3-4 2-8 2-7 2-15 6-12 6-11 4-13 3-9 4-14 4-14 6-10 3-18 7-26 10-8 3-5 1-2-4 5-1 1-3 10-5 3-3 5-2 8-1 6-4 5-3 6-5 4-3 7-3 8-1 15-5 13-6 12-2 5-3 9-3 4-2h3v-2l10-3 7-4 9-3 7-2v-2l9-3 12-5 15-6 5-3 8-3 11-3 7-2 7-3 12-5 13-5h5v-2h3v-2l9-4 6-3h3l1-3h4v-2l10-5h-2l-7 2-4 1-11 1-3 1h-8l-1-2 5-2 11-2 12-5 21-8 25-10 19-6z" fill="#ECA15C"/>
<path transform="translate(1172,1591)" d="m0 0 7 1 11 6 15 10 16 10 23 16 9 6v2l5 2 9 7 10 7 9 7 11 6 8 6 13 9 5 4 19 12 14 10 10 7 11 7 7 6 8 5v2l5 2 10 6 14 9 16 9 14 8 10 7 17 9 12 5 14 4 5 4-8-1-13-4-12-5-16-5-9-6-7-4-14-5-10-5-1-2-6-1-24-12-9-6-13-9v-2l-5-2-12-8v-2h-3v-2l-5-2-8-6-7-4-9-7-11-7-11-8h-2v-2l-5-2v-2l-6-2-6-3-5-5-11-8-10-9-8-4v-2l-5-2-7-3-5-5-1-3-5-1-11-6-10-2-5-5-5-4-2-5-3-3-2-7-3-4v-2h-2l-1 3h-1v-6l-3-1z" fill="#D6B79E"/>
<path transform="translate(1922,129)" d="m0 0 6 3 5 18-1 3-4-4v-2l-9-1-7-1-11 1-15 6h-3v2l-6 3-5 4h-3l-2 4-13 10-6 2v2l-4 2-2 3h-2v2l-6 2-1 3-7 5-5 3-6 4h-2v2l-7 4-10 7-3 3-6 4h-2v2l-21 15h-2v2l-5 3h-2l-1 3-11 8-16 12-6 4h-2v2l-11 8-14 11h-2v2l-14 11-16 12-13 10-17 13-17 14-14 11-16 13-19 14-13 10-8 6h-2v2l-5 2v2l-11 8-14 10-12 9-9 6-15 11-5 2v2l-10 6-6 4h-2v2l-11 7-17 12-19 14-18 13-11 8h-2v2l-7 5h-2v2l-10 7-3 3-8 6h-2v2l-3 1-1 2-5 3-13 10-11 8h-2l-2 4-7 4-13 10-11 8-16 12-7 5-2-1 15-12 6-4 16-13 4-3h2v-2l13-9 22-18 5-2v-2l7-5h2v-2l11-8h2v-2l11-8h2l1-3 4-2 3-3 11-8 12-9h2v-2l6-4h2v-2l6-4 16-13 3-2h3v-2l8-5 10-7 7-6 5-1v-2l15-10 8-6 5-4h3l1-3 10-6h2l1-3h3v-2l4-3h3l1-3 7-4 11-8h2l1-3 5-2v-2l6-4h2v-2l7-4h2v-2l15-10 10-8 8-6h2v-2l4-1v-2l4-1v-2l12-9 15-12 5-2v-2l12-9h2v-2l11-8 13-10h2v-2l5-2v-2l13-10h2v-2l13-10 5-4h2v-2l10-7h2l1-3 18-13 5-4h2v-2l4-1v-2l4-2 3-3 11-9 3-2 2-1 1-6 4-1 1-3 5-3 4-4 6-5h2v-2l11-8 12-9h2l1-3 5-1 1-3 10-6 3-1v-2l9-6 11-8 12-6h4v-2l13-5 8-3h9z" fill="#BD7B3F"/>
<path transform="translate(1276,1182)" d="m0 0 3 1 3 9 1-2h2v-2h2v2l4-1 6 2v3l2 1 4 4 2 1v2l3 1v2l4 2v2l5 2 5 3 1 2 14 6v2l10 3 12 5v1l-17-1-6-3-17-6-8-4v-2l-9-2-5-3-13-4-9-5-3-1-8 18-8 16-8 19-9 15-7 16-9 17-4 8-1 4h6l-1 2-9 1-1 3-21 10-1-2 3-6 2-9 7-12v-4l2-4h2l1-4 1 2 1-13 5-5 1 3 4-9 4-2 2-7 7-15h2l2-6 2-4 2-8 1-3h2l2-9 1-14 4-6 5-4 5-5z" fill="#BD7B3F"/>
<path transform="translate(106,909)" d="m0 0 2 1-7 5-1 5 2 2-1 11-1 6 3 6 7 9 2 1 1 3 6 5 2 4 2 1v2h2l3 6 5 8 6 7 3 4 2 5 5 5 6 8 2 5 3 3 6 10v2l17 2 16-3 18-6 39-12 21-6 61-19 25-8 10-3 4 1-61 20-50 15-24 7-16 5-26 9-18 7-19 5-8 1-4-1-2-10-6-10-10-10-8-10-12-14-10-12-13-19-8-10-4-8-4-14 4-5 22-12z" fill="#9B724D"/>
<path transform="translate(1461,1780)" d="m0 0 12 2 6 3 7 2 5 1 4 2 7 1 12 5 7 3v2h6l10 6 9 1 9 3 7 1 3 1v2l3-1 3 1v2h8v2l7 1 6 2 5 1 7 1 11 3 4 2 3 1v2l7 1h4l4 2v2l3-1 11 3 3 2 6 1 3 2 9 2 12 4 7 3 14 3v2h7l3 2 7 2v2l4 2 10 3 5 1v2h9l16 5 11 3 8 3 7 2 4 1 10 1v2l12 1v2l10 3 15 4 11 3 9 4 4 1 4-1 3 2h8v2h2v-2h8l8-2v-2l7-3 5-3 4-6h2l2-7h2l2-8h2l1-5 4-2 1-3-1 8-10 34-4 12-3 5-11-3-36-10-42-12-32-10-24-8-36-10-54-17-79-26-48-15-43-12v-2l-5-2-19-6-7-3-17-9z" fill="#FAAC5F"/>
<path transform="translate(2020,1486)" d="m0 0 2 1 1 4v9l1 4-1 4h-2l1 9-2 21 1 4-15 57-12 44-10 35-12 46-15 55-1 3h-2v-10l2-8 4-13 3-11 1-7v-1l1-7 5-25 2-7 1-5 1-2 1-17 4-14 5-28 4-16 5-17 5-10 2-20 3-18 3-10 3-16 2-4v-3h2v-10l3-5v-9l4 1z" fill="#EBA25E"/>
<path transform="translate(118,125)" d="m0 0 10 1 15 4 1 2 8 4 5 4 6 4 7 6 3 3 7 4 10 8 8 4 7 6 6 3 8 6 7 5v2l5 2 12 9 5 2 4 5 2 1v2l5 2v2l4 2 5 4 8 4v3l4 2 10 7 3 3 3 1 5 5 9 8 4 2v2h2v2h2v2l4 1 4 4 3 2v2l4 2 6 4-1 2-4-2-4-3-5-3-10-8-9-6v-2l-5-2-8-6-3-2v-2l-5-2-4-3v-2l-5-2-6-5-3-1v-2l-5-2-5-4-4-2v-2l-4-2-7-4v-2h-2v-2l-5-2-7-4v-2l-10-5-3-3-3-2v-2l-6-2-10-6v-2l-6-2-6-5-4-1v-2l-4-1-14-9-4-3-12-4-11-4-16 3-2 1-5 11-2 6h-2v4l-2 1-4 13-3 10-3 7-2 9h-2l-1 4-13 39-2 5-5 13-2 11-4 9-1 7-3 4-3 7-1-3 16-50 10-30 28-86 5-14z" fill="#C38850"/>
<path transform="translate(1941,909)" d="m0 0 8 6 5 5 10 7 6 7-3 10-7 10-13 16-9 11-10 11-13 18-7 9-9 9-1-3 2-6 1-6 5-7h2l1-4h2l2-5 3-4 1-9-7 3h-3l-1 2h-2l-2 7 2 6-1 6-7 10-3 3-2 5-6 3-4-1v-7l4-11 7-10 11-14 9-10 17-17 3-7 2-4 2-11 3-8 1-5 4-3h3v-2h2l-8-8z" fill="#9C734E"/>
<path transform="translate(770,1191)" d="m0 0 6 5 6 9 4 9-1 2h2l6 16 8 16 8 20 11 22 3 7 4 13 4 6 1 5-3 1-21-7-24-4-3-1v-2l-6-1 4-1 30 7 11 3 7 3-4-8-7-10-8-18-6-12-4-9-6-11-9-16-7-17-7-11-3-1-17 6-7 4-8 3-32 16-21 10-16 7-30 12-1 3 15 5 4 2-9-1-18-5-5-5 5-5h2v-2l13-5 5-2 12-5 11-5 13-4 9-4 14-7 11-6 6-2v-2l4-2h3v-2l15-8 8-4 7-3z" fill="#8B5F37"/>
<path transform="translate(2009,468)" d="m0 0 2 1v18l-6 32-6 35-14 90-10 69-3 11h-1v-17l-3-10-1-1v-23l3-18 1-10 2-4 1-8 5-18 3-12 3-27 4-10v-7l1-2 2-14 2-1-1-1v-7l1-2-1-7 3-11 1-4v-8l3-9 1-4 1-3 1-7 2-5 2-4h2z" fill="#9D744F"/>
<path transform="translate(40,360)" d="m0 0h1l-1 9-1 14-1 3-1 8v10l-2 9v37l1 8 1 4 1 15v12l2 5 2 17 3 17v8l3 13 1 9 1 2-1 5 2 1v14h2l3 12 1 14 2 10 3 22 1 2h-2v2h2l1 2 1 16 2 13 4 14v10l4 26 2 8-1 17-11 3-8-1-3-1 11-4 10 2-7-41-5-32-10-58-11-64-7-48-10-60-1-8v-26l3-14 7-19z" fill="#C48C56"/>
<path transform="translate(1178,1626)" d="m0 0h1l5 50 3 26 4 31 1 20-1 1h-15l-7-5-11-4-25-2h-18l-48-1h-149l-36 1-5 2-8 7-8 3-5-1v-20l4-29 6-48h1v9l-4 39-3 32v11l4-1 4-2 2-4 4-3 4-1 103 1h110l52-1 15 1 11 3 11 5 5 1 2-6-1-17-6-62v-13h-2z" fill="#9A714B"/>
<path transform="translate(90,811)" d="m0 0h3l-1 4-4 6v8l-3 15 1 8 6 22 4 7 5 6 6 10 2 8-8-6-13-11-8-8-8-7-17-13-4-6v-6l7-8 10-9 14-14z" fill="#9B724D"/>
<path transform="translate(1922,129)" d="m0 0 6 3 5 18-1 3-4-4v-2l-9-1-7-1-11 1-15 6h-3v2l-6 3-5 4h-3l-2 4-6 4-6 1v2l-5 1-1 3-11 6h-2v2l-6 4h-3l-2 4-9 6-11 7-18 12 1-6 4-1 1-3 5-3 4-4 6-5h2v-2l11-8 12-9h2l1-3 5-1 1-3 10-6 3-1v-2l9-6 11-8 12-6h4v-2l13-5 8-3h9z" fill="#C2874E"/>
<path transform="translate(1029,1555)" d="m0 0h12l28 2 4 1 25 2 14 3h5l2 2 8 2v1h-10l-9-2-24-2-29-1-11-1h-73l-35 3-24 3-14 3-7 3-10 1-1-2 4-6 4-2 10-2 4-1h10l24-3 7-2 15-1z" fill="#F5A759"/>
<path transform="translate(1272,1196)" d="m0 0 4 1 5 5 18 7 19 7 29 11 12 5v1l-17-1-6-3-17-6-8-4v-2l-9-2-5-3-13-4-9-5-3-1-8 18-8 16-8 19-9 15-7 16-9 17-4 8-1 4h6l-1 2-9 2-10 3 4-6h2l1-5 6-12 2-6 3-2 7-14 8-17 2-6h2l3-10 3-5h2l3-9 2-4h2l1-5 4-8h2l1-4 5-9z" fill="#8B5F37"/>
<path transform="translate(1975,832)" d="m0 0 7 4 6 5 6 10-1 6-16 10-13 10-7 7h-2l-2 4-4 3h-2v-5h2l3-9 3-7 3-6 2-13 2-11 6-4 2 1 1-2 4-1z" fill="#9E754F"/>
<path transform="translate(1272,1201)" d="m0 0 4 2 11 5 12 4 7 3 5 2v2l5 2 12 4 12 5 4 1 18 2v2l9 3 25 11 16 8 3 4v3l6-1 1 2-4 2-6-2-2-1-2-5-4-1-7-1-11-5-12-4-10-4-12-4-12-5-36-12-13-4-10-3-5-4v-7l-3-1-7 14-1-3z" fill="#413933"/>
<path transform="translate(1391,1276)" d="m0 0 3 1-4 1v2l-2 1h-8v2l-5 3h-9l-6 3-12 4-13 3-20 4v2l-32 8-13 3h-7l-2-2-2-4 30-8 36-8 56-14z" fill="#F3A558"/>
<path transform="translate(1967,745)" d="m0 0h10l16 5 6 4 4 7-1 7-5 9-6 4-11 6-8 5 1-4 10-8 4-1 1-4-5-3-5-5-1-2 1-2h-5l-5-14z" fill="#9B724C"/>
<path transform="translate(1180,1638)" d="m0 0h1l8 60 4 33 1 12v10l-1 3-5 1h-13l-6-4-6-3-8-3-23-2-50-1-27-1h-108l-1-2h124l50 1h13l25 2 12 5 6 4h15l-1-20-4-31-3-26-3-28z" fill="#D7B79E"/>
<path transform="translate(1299,1237)" d="m0 0 4 4 1 4h7l-1 6h4l2 3-1 2-14 1v2l-4 1v2h-2v2l-7 1v2h-6v-6l-2-2-4-5-2-4 3-3 5-3 2-4 4-2h10z" fill="#3F3832"/>
<path transform="translate(1178,1626)" d="m0 0h1l5 50 3 26 4 31 1 20-1 1h-15l-7-5-11-4-25-2h-18l-45-1v-2h87l13 4 8 5h10v-17l-1-7-1-1-6-62v-13h-2z" fill="#9A714C"/>
<path transform="translate(327,1851)" d="m0 0 4 1-2 1v3l-9 4-6 1-4 2-11 2-4 2-16 6h-6l-5 2-7 2-10 4-6 3h-2l-1 2h-7l-9 3-12 2v2l-7 2-7-1 3-2h2v-2l13-4 8-4 31-8 9-2h5v-2l6-3 7-3 14-4 12-3 5-1 8-4z" fill="#ECA25C"/>
<path transform="translate(373,978)" d="m0 0 4 1-61 20-50 15-24 7-16 5-26 9-18 7-19 5-8 1-4-1v-8l12 3 11-2 13-4 30-10 39-12 21-6 61-19 25-8z" fill="#BD7B3F"/>
<path transform="translate(1285,1188)" d="m0 0h2v2l4-1 6 2v3l2 1 4 4 2 1v2l3 1v2l4 2v2l5 2 5 3 1 2 14 6-3 1-25-9-26-10-1-3v-6-3l1-2h2z" fill="#C2864D"/>
<path transform="translate(1828,193)" d="m0 0m-1 1m-1 1m-3 1h3v3l-16 11-6 2-1 3-9 6h-2v2l-6 4-8 6-3 3-4 1v2l-7 5h-2l-2 4-5 2-4 4h-2v2l-5 2v2l-6 3-12 8-3 3h-3v2l-6 4-8 6h-2v2l-12 9-9 7-2-1 9-8h2v-2l11-8 14-11h2v-2l11-7 14-11 10-7 3-3 5-2v-2l10-7 11-8h2v-2l8-5h2l1-3 14-10h3v-2l9-6z" fill="#9A714C"/>
<path transform="translate(158,135)" d="m0 0 12 3 43 16 19 8 18 7v1h-7l-4-1-9-2-10-4-16-4-5-3-5-2-8-4-8-3v-2l-6-1-10-6-4-2z" fill="#D6B9A2"/>
<path transform="translate(1264,1218)" d="m0 0 1 4-7 17-5 12-4 10-4 11-1 3h-2l-1 4-1 3h-2l-2 6-5 10h-2l-8 16h-2v2l-2-1 3-7 10-21 7-14 6-11 7-14 9-21z" fill="#403933"/>
<path transform="translate(1423,495)" d="m0 0 2 1-20 16h-2l-2 4-5 3h-2v2l-12 9-5 3-4 4-4 3h-2v2l-11 8-8 6-1 2-7 4-17 13-4 1v2l-6 3-3 3-3-1 5-5 15-11 9-7 4-1 1-3h3v-2l10-7h2l1-3 8-6h2v-2l6-4 3-1v-2l6-4 18-13 19-14z" fill="#9A714C"/>
<path transform="translate(1901,992)" d="m0 0 1 4 2 6-1 6-7 10-3 3-2 5-6 3-4-1v-7l4-11 5-5 8-9 1-3z" fill="#9A714C"/>
<path transform="translate(1187,1725)" d="m0 0h1l1 7v17l-1 1h-10l-8-5-13-4-170-1v-1l104-1 52-1 15 1 11 3 11 5 5 1 2-6z" fill="#8B5F37"/>
<path transform="translate(1900,128)" d="m0 0 3 1-6 4-12 3-10 4-7 5-8 4-2 3-10 4-7 2-4 1-11 1-3 1h-8l-1-2 5-2 11-2 12-5 21-8 25-10z" fill="#D6B8A0"/>
<path transform="translate(864,1665)" d="m0 0h1l-1 16-6 48-1 5v20l7-1 8-4 6-6 6-1 35-1 18 1v1l-17 1-39 1-5 4-3 3-8 4-3 1h-7l-2-5v-19l4-21z" fill="#D7B79E"/>
<path transform="translate(1970,745)" d="m0 0h7l16 5 6 4 4 7-1 7-5 9-6 4-11 6-8 5 1-4 10-8 7-3 5-3 1-12h-2l-4-8-14-6-6-2z" fill="#DFD0C6"/>
<path transform="translate(905,1931)" d="m0 0h76l23 1h14l7 1 13 1v1h-46l-70-2-17-1z" fill="#FDFDFD"/>
<path transform="translate(1813,1024)" d="m0 0 10 1 12 4v2l13 2 7 3 7 2 5 2 7 2 3 2v2l3 1v3l2 1 2-4 1 7-5-1-6-2-3-3-16-8-24-9-18-6z" fill="#9C724B"/>
<path transform="translate(13,1452)" d="m0 0h1v7l-2 11-1 18 2 19 2 10v5l-2-4-7-25-1-5v-10z" fill="#D6BAA3"/>
<path transform="translate(830,1299)" d="m0 0 4 2 4 15 4 6 1 9h-3l-3-2v-2l-5-2-3-3 2-1-2-7v-7z" fill="#C2854C"/>
<path transform="translate(1203,1302)" d="m0 0h3l-1 15-1 5 8-3 2 1-15 8-8 3 2-5 3-12z" fill="#C3864D"/>
<path transform="translate(88,812)" d="m0 0v3l-5 5-5 4-5 5-5 6-6 5-4 10 1 7 1 1v5l-5-3-4-6v-6l7-8 10-9 14-14z" fill="#D2B59E"/>
<path transform="translate(1973,775)" d="m0 0 5 1 9 3-4 2-10 8-2 4-6 3-1-7 5-10v-2z" fill="#9E734D"/>
<path transform="translate(1889,1041)" d="m0 0h1l5 25 4 16-3-3-7-14-2-2-3-9v-7z" fill="#DACABF"/>
<path transform="translate(16,1526)" d="m0 0 2 2 4 13 7 20 5 21 3 8v8h-2l-11-39-6-23z" fill="#D6BBA6"/>
<path transform="translate(878,1737)" d="m0 0 84 1-3 2h-79l-7 2-2 4-5 4-8 1v-9h1l1 6 4-1 4-2 2-4 4-3z" fill="#8B5F37"/>
<path transform="translate(30,387)" d="m0 0h1l-1 11-2 15v37l-2 1-2-15v-26l3-14z" fill="#D6B8A1"/>
<path transform="translate(197,1034)" d="m0 0 3 1-18 7-19 5-8 1-4-1v-8l12 3 11-2 16-4z" fill="#C3874E"/>
<path transform="translate(1178,1626)" d="m0 0h1l5 50 3 26 1 12h-2l-3-19-3-33v-13h-2z" fill="#936943"/>
<path transform="translate(618,498)" d="m0 0 5 2 14 10 6 4 14 10 15 11v2l4 2 5 5-4-2-11-7-10-8-2-1v-2l-5-2-5-4-20-14-6-5z" fill="#9A714C"/>
<path transform="translate(150,1044)" d="m0 0 1 3 12-1h7v7l-8 4h-3l-3-5-7 1z" fill="#EAA361"/>
<path transform="translate(66,835)" d="m0 0v3l-4 9-1 8 5 9 4 2 5 5 4 6-1 2-7-7-11-8-2-7-1-7 4-10z" fill="#C38951"/>
<path transform="translate(1178,1657)" d="m0 0h1l1 5 2 28v15l-2-1-1-5v-7l-2-5v-8l-1-11 1-3-1-6z" fill="#312B25"/>
<path transform="translate(1964,928)" d="m0 0 5 5 1 3-4 9-6 9-5 6-1-4 5-10 3-1 1-13h2z" fill="#C6905E"/>
<path transform="translate(981,1738)" d="m0 0h5l1 1 83 1-1 2-106-1 1-2z" fill="#986E49"/>
<path transform="translate(1933,982)" d="m0 0 3 1-8 9-13 18-7 9-3 2 2-4 11-16 4-4 3-11 4-3z" fill="#C89667"/>
<path transform="translate(50,751)" d="m0 0 2 1-2 3-1 15 3 4-2 4-6-7-2-3 1-8 4-6z" fill="#D6C6BB"/>
<path transform="translate(74,259)" d="m0 0 1 4-4 9-2 11-4 9-1 7-3 4-3 7-1-3 15-47z" fill="#C6905D"/>
<path transform="translate(98,973)" d="m0 0 7 2 6 9 5 6v2l3 1 3 7v3l-12-13-9-12z" fill="#C68F5C"/>
<path transform="translate(1506,304)" d="m0 0 4 1-1 2-4 2-3 3-6 2h-7l-7 2-1-2 9-4 4-2 3-2z" fill="#EBA15A"/>
<path transform="translate(1813,1024)" d="m0 0 10 1 12 4v2l6 1 24 10 12 7 2 3-5-1-3-3-16-8-24-9-18-6z" fill="#C38448"/>
<path transform="translate(840,688)" d="m0 0h4l-2 4-11 11-9 7-2-1 3-5 5-5h2l2-4 4-4h2v-2z" fill="#443A32"/>
<path transform="translate(822,652)" d="m0 0h3l3 3 8 7 7 6 5 5v7l-4-5v-2h-3l-2-4-4-2-4-5-2-1v-3l-4-1z" fill="#4B3E33"/>
<path transform="translate(866,1657)" d="m0 0h1v9l-4 39-1 11-2 9-2 1 2-21z" fill="#A17247"/>
<path transform="translate(10,1461)" d="m0 0h1l-1 19-1 21-2-4-2-9v-10z" fill="#D6C6BB"/>
<path transform="translate(54,776)" d="m0 0h5l1 3 3 1 5 5v2l5 2 3 5-5-2-11-7-8-5 2-1z" fill="#C58D59"/>
<path transform="translate(1983,838)" d="m0 0 5 3 6 10-1 6-6 4-3-1 1-5 4-3h2l-1-4-4-2-3-4z" fill="#D6BCA9"/>
<path transform="translate(1984,703)" d="m0 0 6 1 3 4-1 4-2 1h-8l-1-1v-7z" fill="#FDFDFD"/>
<path transform="translate(1251,1309)" d="m0 0h7l-2 2-12 3-9 4h-6l-2-2 4-3z" fill="#DB9656"/>
<path transform="translate(1916,124)" d="m0 0h8l3 5-1 3-3-2-2 1-4-2h-10l-4-2z" fill="#D6B8A1"/>
<path transform="translate(617,1253)" d="m0 0 4 1 1 4-1 7 2 3-4-1-5-5 1-8z" fill="#C3874E"/>
<path transform="translate(638,1252)" d="m0 0 2 1-6 5h-2v2l-5 2-1 5-4-2v-3l4-4h2v-2z" fill="#9A714C"/>
<path transform="translate(1538,291)" d="m0 0 3 1-11 6-5 3-3 3-6-1v-3z" fill="#EB9F58"/>
<path transform="translate(1993,775)" d="m0 0 2 1-10 8-11 7-2 1 1-4 10-8 7-3z" fill="#D8C4B5"/>
<path transform="translate(88,812)" d="m0 0v3l-5 5-5 4-5 5-5 6-7 5 2-4 19-19z" fill="#CB9E76"/>
<path transform="translate(539,1798)" d="m0 0 3 2-35 10-3-1 12-5 21-5z" fill="#D6BCA7"/>
<path transform="translate(770,1191)" d="m0 0 6 5 6 9 4 9-2 2-8-16-6-5-6-1 2-2z" fill="#9A714C"/>
<path transform="translate(1926,992)" d="m0 0v3l-11 15-7 9-3 2 2-4 11-16z" fill="#D8BAA2"/>
<path transform="translate(217,1026)" d="m0 0m-4 1h4v2l-14 5-13 3-3-1z" fill="#BD7C41"/>
<path transform="translate(1216,1301)" d="m0 0 1 3-5 15-4 2-4 1 4-6h2l1-5z" fill="#9A714C"/>
<path transform="translate(340,280)" d="m0 0 1 2 4 1 4 3v2l5 2v2l3 1v2h3v3h-2v-2l-4-2-5-3v-2l-4-2v-2l-5-2z" fill="#C4874D"/>
<path transform="translate(118,125)" d="m0 0 10 1 8 2v1l-7 1-5-2-7 3-2 1 1-5z" fill="#DBB18E"/>
<path transform="translate(13,1452)" d="m0 0h1v7l-2 11-1 14-2 4v-14l2-16z" fill="#D6B8A0"/>
<path transform="translate(80,924)" d="m0 0 1 3-2 7v10l-2-4-3-10 4-5z" fill="#C9986A"/>
<path transform="translate(1185,1706)" d="m0 0h1v8h2l2 10v9l-2-1-1-7-1-1-1-9z" fill="#986D46"/>
<path transform="translate(31,1579)" d="m0 0h2l4 11v8h-2l-4-14z" fill="#D6B9A3"/>
<path transform="translate(744,370)" d="m0 0 23 1v1l-7 2h-8l-8-3z" fill="#D7C3B4"/>
<path transform="translate(1955,814)" d="m0 0 7 4 10 11h-3l-8-7-4-4v-2h-2z" fill="#D7C7BC"/>
<path transform="translate(1392,1246)" d="m0 0 5 2 13 4 3 4-7-1-14-7z" fill="#E19F62"/>
<path transform="translate(772,749)" d="m0 0h2l-1 3-15 12-2-1 9-9 4-1 1-3z" fill="#493B2E"/>
<path transform="translate(81,949)" d="m0 0 4 1 2 5 4 4 4 7-1 2-12-16z" fill="#C79260"/>
<path transform="translate(1177,1645)" d="m0 0 1 4h2v13h-1l-1-5-2-1v-7l-1-3z" fill="#362F29"/>
<path transform="translate(1954,921)" d="m0 0 3 2h-2l-1 9-4 6-2-1 2-6z" fill="#C58F5B"/>
<path transform="translate(1185,1690)" d="m0 0h1l2 24h-2l-2-11v-9z" fill="#A47549"/>
<path transform="translate(1168,1585)" d="m0 0 9 3 4 4h-10l-3-5z" fill="#CE8F54"/>
<path transform="translate(1304,584)" d="m0 0h3l-1 3-10 6-7 5-2-1 13-10z" fill="#9A714C"/>
<path transform="translate(1885,1051)" d="m0 0 3 2 2 9 3 5-1 3-5-7-3-9z" fill="#D7B79E"/>
<path transform="translate(1813,1024)" d="m0 0 10 1 12 4v1h-7l-15-5z" fill="#AB7545"/>
<path transform="translate(1983,838)" d="m0 0 5 3 4 7-5-1-4-5z" fill="#D6C1B2"/>
<path transform="translate(1113,1563)" d="m0 0 5 1 9 3v1h-10l-5-1z" fill="#EB9F53"/>
<path transform="translate(775,1306)" d="m0 0 7 1 12 3v2l-10-1-3-1v-2l-6-1z" fill="#9F6D3F"/>
<path transform="translate(1968,933)" d="m0 0 2 1-3 10-3 3 1-12z" fill="#D6BCA7"/>
<path transform="translate(1899,991)" d="m0 0 2 2h-2l-1 4-9 11-1-2 7-10z" fill="#C7915F"/>
<path transform="translate(1992,750)" d="m0 0 7 4 3 5-1 2-7-5z" fill="#FDFDFD"/>
<path transform="translate(65,745)" d="m0 0 5 1v2l-8 2h-8l2-2z" fill="#D6C2B4"/>
<path transform="translate(1819,157)" d="m0 0h8l-1 3-3 1h-8l-1-2z" fill="#D6BAA5"/>
<path transform="translate(1170,1589)" d="m0 0 1 3 4 1v6l-5-4-4-2 1-2h3z" fill="#5A4838"/>
<path transform="translate(63,293)" d="m0 0h1v6l-3 4-3 7-1-3 4-12z" fill="#C58D59"/>
<path transform="translate(1268,609)" d="m0 0v3l-15 11-2-1 15-12z" fill="#BF7F44"/>
<path transform="translate(1214,1274)" d="m0 0h1v7l-4 8h-2l1-10 3-3z" fill="#CB894A"/>
<path transform="translate(137,1020)" d="m0 0h4l3 4 3 1 1 4-2 2-9-10z" fill="#C79260"/>
<path transform="translate(1913,975)" d="m0 0 2 1-9 10-4 5-2-1 12-14z" fill="#CD9F76"/>
<path transform="translate(878,1576)" d="m0 0 1 3-4 16-2 1 1-8 2-9z" fill="#D6C2B3"/>
<path transform="translate(1974,706)" d="m0 0h1v7l-3 11h-1v-12l3-1z" fill="#C1A288"/>
<path transform="translate(1207,1290)" d="m0 0h1l1 7-3 4-3-1 2-6h2z" fill="#C3874E"/>
<path transform="translate(68,869)" d="m0 0h5l6 8-1 2-7-7z" fill="#CCA078"/>
<path transform="translate(52,779)" d="m0 0 7 1 7 7h-3l-11-7z" fill="#D6B9A2"/>
<path transform="translate(205,152)" d="m0 0 10 3 8 3-4 1-12-4z" fill="#D6C6BB"/>
<path transform="translate(860,1719)" d="m0 0h1v9l-1 9-3-4 1-7z" fill="#956840"/>
<path transform="translate(88,812)" d="m0 0v3l-5 5-5 4-2-1z" fill="#D1AE8F"/>
<path transform="translate(1285,1245)" d="m0 0 4 1 2 5h-2l-1 2-4-2z" fill="#312B25"/>
<path transform="translate(1521,298)" d="m0 0 3 1 1 2-3 3-6-1v-3z" fill="#EBA15C"/>
<path transform="translate(1135,1571)" d="m0 0 10 1 6 2 1 3-10-3-7-2z" fill="#D28E4C"/>
<path transform="translate(513,1805)" d="m0 0h8l-4 2-10 3-3-1z" fill="#D6C0B0"/>
<path transform="translate(1993,757)" d="m0 0 6 5-2 11h-1v-11h-2z" fill="#D7B79E"/>
<path transform="translate(1926,992)" d="m0 0v3l-8 11-1-4z" fill="#D6BDAA"/>
<path transform="translate(83,808)" d="m0 0h2v2h-2z" fill="#D6C6BB"/>
<path transform="translate(1977,710)" d="m0 0 1 2-2-1z" fill="#D6C6BB"/>
<path transform="translate(86,809)" d="m0 0" fill="#D6C6BB"/>
</svg>
